<svg xmlns="http://www.w3.org/2000/svg" viewBox="0 0 100 100" fill="none">
  <defs>
    <linearGradient id="flex-grad" x1="0%" y1="0%" x2="100%" y2="100%">
      <stop offset="0%" stop-color="#00D2FF" />
      <stop offset="50%" stop-color="#3A7BD5" />
      <stop offset="100%" stop-color="#6C5CE7" />
    </linearGradient>
    <filter id="glow" x="-20%" y="-20%" width="140%" height="140%">
      <feGaussianBlur stdDeviation="4" result="blur" />
      <feComposite in="SourceGraphic" in2="blur" operator="over" />
    </filter>
  </defs>
  <rect width="100" height="100" rx="22" fill="#0A0E17" />
  <rect x="2" y="2" width="96" height="96" rx="20" stroke="url(#flex-grad)" stroke-width="2" stroke-opacity="0.4" />
  <!-- Logo F estilizado com setas de fluxo de alta velocidade -->
  <path d="M 28 25 L 72 25 C 75 25 77 27 77 30 L 77 34 C 77 37 75 39 72 39 L 44 39 L 44 47 L 66 47 C 69 47 71 49 71 52 L 71 56 C 71 59 69 61 66 61 L 44 61 L 44 75 C 44 78 42 80 39 80 L 33 80 C 30 80 28 78 28 75 Z" fill="url(#flex-grad)" filter="url(#glow)" />
  <circle cx="74" cy="74" r="5" fill="#00D2FF" />
</svg>
